<svg width="109" height="132" viewBox="0 0 109 132" fill="none" xmlns="http://www.w3.org/2000/svg">
<path d="M90.5784 122C89.3116 121.999 88.0616 121.715 86.9213 121.17C85.7805 120.624 84.7787 119.831 83.9903 118.849C81.5509 116.239 62.6976 97.894 51.1448 86.709C50.3453 85.9455 49.7061 85.033 49.2641 84.0235C48.8221 83.0145 48.586 81.9285 48.5694 80.8285C48.5529 79.7285 48.7561 78.636 49.1675 77.614C49.5789 76.592 50.1903 75.661 50.9665 74.874C51.7427 74.0875 52.6683 73.4605 53.6901 73.0295C54.7119 72.5985 55.8096 72.3725 56.9201 72.3635C58.0306 72.3545 59.1318 72.5635 60.1604 72.978C61.1892 73.393 62.1247 74.005 62.9135 74.7795C62.996 74.8595 71.3164 82.916 79.5747 90.964L82.1623 93.4865V54.3106C82.1623 39.0755 69.7534 26.6807 54.5 26.6807C39.2467 26.6807 26.8378 39.0755 26.8378 54.3106V113.659C26.8378 115.871 25.9508 117.993 24.372 119.557C22.7931 121.12 20.6517 121.999 18.4189 121.999C16.1861 121.999 14.0447 121.12 12.4658 119.557C10.887 117.993 10 115.871 10 113.659V54.3106C10 29.8775 29.9625 10 54.5 10C79.0372 10 99 29.8775 99 54.3106V113.659C98.999 115.871 98.1115 117.993 96.5323 119.557C94.953 121.121 92.8115 121.999 90.5784 122Z" fill="#4F46E5"/>
<path d="M54.4991 62.3275C59.8131 62.3275 64.1207 58.0601 64.1207 52.7957C64.1207 47.5314 59.8131 43.2638 54.4991 43.2638C49.1852 43.2638 44.8774 47.5314 44.8774 52.7957C44.8774 58.0601 49.1852 62.3275 54.4991 62.3275Z" fill="#4F46E5"/>
</svg>
